PathFileType	4	(X/Y/Z)	C:/Users/opensim2020/Desktop/walking_exp_matlab/subject02_walking07_straight_04.trc	
DataRate	CameraRate	NumFrames	NumMarkers	Units	OrigDataRate	OrigDataStartFrame	OrigNumFrames	
100.00	100.00	4	50	mm	100.00	2902	207	
Frame#	Time	LFHD			RFHD			LBHD			RBHD			C7			T10			CLAV			STRN			RBAK			LSHO			LUPA			LELB			LFRM			LWRA			LWRB			LFIN			RSHO			RUPA			RELB			RFRM			RWRA			RWRB			RFIN			LASI			RASI			LPSI			RPSI			LTHI			LKNE			LTIB			LANK			LHEE			LTOE			RTHI			RKNE			RTIB			RANK			RHEE			RTOE			*39			*40			*41			*42			*43			*44			*45			*46			*47			*48			*49			
		X1	Y1	Z1	X2	Y2	Z2	X3	Y3	Z3	X4	Y4	Z4	X5	Y5	Z5	X6	Y6	Z6	X7	Y7	Z7	X8	Y8	Z8	X9	Y9	Z9	X10	Y10	Z10	X11	Y11	Z11	X12	Y12	Z12	X13	Y13	Z13	X14	Y14	Z14	X15	Y15	Z15	X16	Y16	Z16	X17	Y17	Z17	X18	Y18	Z18	X19	Y19	Z19	X20	Y20	Z20	X21	Y21	Z21	X22	Y22	Z22	X23	Y23	Z23	X24	Y24	Z24	X25	Y25	Z25	X26	Y26	Z26	X27	Y27	Z27	X28	Y28	Z28	X29	Y29	Z29	X30	Y30	Z30	X31	Y31	Z31	X32	Y32	Z32	X33	Y33	Z33	X34	Y34	Z34	X35	Y35	Z35	X36	Y36	Z36	X37	Y37	Z37	X38	Y38	Z38	X39	Y39	Z39	X40	Y40	Z40	X41	Y41	Z41	X42	Y42	Z42	X43	Y43	Z43	X44	Y44	Z44	X45	Y45	Z45	X46	Y46	Z46	X47	Y47	Z47	X48	Y48	Z48	X49	Y49	Z49	X50	Y50	Z50	

182	1.810	-919.31317	-931.99896	1706.35425	-1062.15613	-934.76947	1695.02710	-920.28345	-789.16998	1656.87939	-1062.24390	-779.78510	1646.31885	-1011.44128	-724.57788	1508.09265	-1020.94226	-691.49902	1226.04443	-983.85260	-866.51105	1447.72656	-1002.39001	-935.08179	1284.11438	-1087.77783	-685.94446	1329.68213	-830.13312	-760.57239	1476.48645	-756.97815	-726.26398	1279.68823	-749.57300	-713.68347	1138.57300	-729.57526	-714.78510	1007.37775	-727.40253	-776.39648	880.71527	-719.32275	-720.26611	884.12238	-706.72101	-735.80731	819.92914	-1186.38782	-824.05206	1490.13110	-1272.45129	-852.24438	1297.13501	-1285.47388	-908.79553	1160.94470	-1294.25464	-974.87341	1058.69922	-1259.49146	-1051.80847	950.24097	-1304.23047	-1019.43829	936.52747	-1291.99365	-1070.43079	884.33331	-885.21954	-955.84619	994.96729	-1134.58508	-932.43848	956.78534	-948.61469	-736.04266	1016.72980	-1064.11169	-723.28125	1009.78271	-825.38879	-951.64325	681.34833	-858.77740	-942.47504	475.97134	-861.87823	-906.26257	282.95404	-905.30743	-928.68585	64.75601	-959.97546	-895.32800	37.96451	-889.47485	-1085.32678	29.23488	-1210.95032	-814.37677	652.33789	-1208.39868	-798.28638	452.20105	-1200.72754	-650.65265	342.08893	-1156.24817	-513.42200	211.85048	-1090.30103	-464.99030	197.85104	-1171.47351	-563.33667	55.92614	-1008.13940	-848.09021	1793.94983	-3357.33813	2845.96021	1033.92163																											 
183	1.820	-917.73572	-940.57794	1707.33032	-1060.55054	-943.66461	1696.33704	-918.74695	-797.61853	1658.29724	-1061.14966	-788.58649	1647.84741	-1010.34601	-733.49292	1509.45398	-1018.80200	-700.29620	1227.21680	-983.08704	-875.24878	1449.27698	-1001.46637	-943.85181	1285.60046	-1085.81091	-694.28320	1330.98779	-829.17590	-769.70697	1478.14331	-754.91071	-736.56635	1281.57483	-746.54779	-725.27429	1140.15735	-726.24280	-729.56396	1009.01312	-723.16266	-795.47729	884.34326	-715.59399	-738.82330	885.98431	-702.00238	-756.33295	822.71466	-1185.70898	-831.91052	1490.93774	-1271.66370	-859.70081	1297.64014	-1283.02637	-915.92810	1160.91785	-1292.18713	-981.20239	1058.59912	-1256.90076	-1056.83472	949.05548	-1302.23022	-1024.66553	936.03912	-1289.38550	-1074.82214	882.63525	-884.02808	-964.79510	994.84473	-1133.84485	-940.45685	958.00909	-945.94391	-745.05725	1018.37531	-1061.34998	-731.27509	1011.34180	-824.45575	-955.74628	681.10944	-857.83063	-945.63635	475.90994	-860.50134	-908.78589	283.00449	-905.17169	-928.78333	64.73869	-959.75555	-895.62604	37.90884	-889.54132	-1085.33728	29.14279	-1210.57581	-827.79413	653.36664	-1209.34351	-816.92242	453.36099	-1201.04089	-668.91833	345.07034	-1155.49634	-530.25372	216.31451	-1088.83435	-482.55078	200.88625	-1175.69861	-579.17865	60.97991	-1006.56677	-856.71454	1795.38818	-3357.38696	2845.84937	1034.17493																											 
184	1.830	-916.22278	-948.58960	1708.72778	-1059.01379	-952.30194	1698.01111	-917.91260	-805.96484	1659.35120	-1060.42517	-797.13763	1649.48108	-1009.18256	-742.07361	1510.76062	-1016.62433	-709.03949	1228.43005	-982.50775	-883.83636	1450.64099	-1000.74536	-952.42957	1286.90723	-1084.42322	-702.42590	1332.18994	-828.12183	-779.04755	1479.87451	-752.82544	-746.97772	1283.58228	-743.51202	-736.93744	1141.84436	-722.65149	-744.67487	1010.38959	-718.98029	-814.13483	888.23810	-711.77887	-757.43549	887.99652	-697.75977	-776.60938	825.38409	-1185.07971	-839.52887	1491.72986	-1270.31470	-866.91376	1298.01379	-1281.61353	-922.78607	1161.39209	-1290.36035	-987.50098	1058.44788	-1255.05212	-1062.69788	948.49298	-1300.26270	-1030.22607	935.73206	-1287.15808	-1079.12048	881.14130	-883.10706	-973.78485	994.53198	-1133.51770	-948.19397	959.42328	-943.25165	-753.99933	1019.99188	-1058.45068	-739.07874	1012.77551	-823.74054	-960.06476	680.88385	-857.03729	-948.73346	475.76624	-859.62646	-910.99933	282.83667	-905.16296	-928.82355	64.66155	-959.93671	-895.59155	37.68604	-889.57111	-1085.53577	29.11542	-1210.41370	-841.19208	654.83289	-1210.18811	-835.52039	455.12357	-1201.08594	-687.19751	347.83032	-1154.69653	-548.05133	219.73393	-1087.29797	-501.02280	202.84044	-1180.59546	-596.45557	65.24825	-1005.14459	-865.26379	1796.80762	-3360.31494	2845.25562	1034.12854																											 
185	1.840	-914.67517	-956.99420	1709.93457	-1057.65137	-960.91071	1699.48950	-917.12817	-813.96149	1660.62390	-1059.58740	-805.87006	1650.90002	-1007.86713	-750.34265	1512.01367	-1014.42017	-717.67297	1229.63367	-981.90326	-892.47601	1451.95874	-1000.11835	-960.93140	1288.03137	-1082.20728	-710.76703	1333.07764	-827.07251	-788.54852	1481.69263	-750.79047	-757.35852	1285.43823	-740.46765	-747.75079	1143.55774	-719.72070	-759.78235	1011.92163	-715.16431	-832.54633	892.45905	-708.34296	-775.86078	890.28326	-693.30365	-797.41809	828.80670	-1184.40540	-846.96655	1492.56323	-1269.32581	-873.96265	1298.36023	-1279.62244	-929.58783	1161.54602	-1288.63220	-993.64972	1058.36462	-1253.46387	-1068.38477	947.78888	-1298.53479	-1035.52905	935.14423	-1285.35522	-1083.49646	879.80682	-882.35754	-982.81677	994.01624	-1133.54810	-955.79700	960.83130	-940.70532	-762.59833	1021.52362	-1055.53809	-746.74036	1014.11761	-823.24951	-964.26105	680.73877	-856.36273	-951.58228	475.56387	-858.87897	-913.06445	282.76917	-905.11707	-928.91577	64.58850	-959.87921	-895.50098	37.69919	-889.55231	-1085.36780	29.05101	-1210.30090	-854.79529	656.38397	-1210.84448	-853.94183	457.30655	-1200.88306	-705.62573	350.21280	-1153.93372	-566.54352	222.02283	-1085.72351	-520.35956	203.29192	-1185.66870	-614.73352	69.18858	-1003.81140	-873.81989	1798.01355	-3360.40283	2845.19775	1034.07373																											 
